<svg width="146" height="121" viewBox="0 0 146 121" fill="none" xmlns="http://www.w3.org/2000/svg">
<g clip-path="url(#clip0_63_175)">
<path d="M60.7315 105.119L62.3262 100.122C60.4075 98.0897 58.0024 96.5391 55.3197 95.6045C57.9407 99.7831 55.401 105.234 56.4593 110.008C56.8013 111.494 57.4864 112.887 58.4639 114.084C59.4415 115.281 60.6864 116.251 62.1064 116.922L64.5263 119.807C65.7948 117.674 66.5679 115.302 66.792 112.854C67.0162 110.406 66.6862 107.94 65.8248 105.627C65.3282 104.334 64.6643 103.106 63.8488 101.972C62.4108 103.599 60.7315 105.119 60.7315 105.119Z" fill="#F2F2F2"/>
<path d="M51.9634 105.758L51.0745 100.6C48.4155 99.6051 45.5442 99.2494 42.71 99.5643C46.9924 102.179 47.2455 108.148 50.405 111.967C51.3999 113.15 52.6588 114.103 54.0885 114.755C55.5181 115.407 57.0818 115.741 58.6637 115.732L62.1668 117.276C62.3138 114.822 61.9063 112.367 60.9724 110.08C60.0385 107.792 58.6004 105.727 56.7572 104.026C55.7134 103.082 54.5501 102.268 53.2948 101.603C52.7617 103.676 51.9634 105.758 51.9634 105.758Z" fill="#F2F2F2"/>
<path d="M104.154 118.525L101.697 118.525L100.529 109.407L104.154 109.408L104.154 118.525Z" fill="#FFB6B6"/>
<path d="M104.78 120.816L96.8601 120.816V120.719C96.8602 119.932 97.185 119.178 97.7631 118.622C98.3412 118.065 99.1252 117.753 99.9428 117.753H99.943L101.39 116.697L104.089 117.753L104.78 117.753L104.78 120.816Z" fill="#2F2E41"/>
<path d="M143.831 109.903L142.156 111.632L134.429 106.239L136.901 103.687L143.831 109.903Z" fill="#FFB6B6"/>
<path d="M146 111.024L140.6 116.6L140.527 116.534C139.929 115.997 139.577 115.254 139.548 114.468C139.519 113.682 139.816 112.917 140.373 112.341L140.557 110.602L143.2 109.423L143.672 108.936L146 111.024Z" fill="#2F2E41"/>
<path d="M140.197 104.779L137.601 110.004L121.658 99.8467L119.339 96.8058L111.734 86.835L108.643 91.5551L106.492 96.4894C105.791 96.9294 105.201 97.5137 104.763 98.2001C104.325 98.8866 104.051 99.658 103.961 100.459L103.863 101.332L105.222 113.09L100.056 114.617L97.089 98.8215L98.0589 95.3987L99.0574 90.5942L104.085 75.4119H117.538L125.254 91.2173L125.818 94.4378L128.006 96.854L140.197 104.779Z" fill="#2F2E41"/>
<path d="M112.239 50.5721L114.503 52.2316L117.235 53.0392C117.235 53.0392 118.364 68.3231 119.381 69.3021C120.398 70.2812 119.481 70.3075 119.685 71.5793C119.89 72.8511 120.387 75.4583 120.387 75.4583C113.519 78.9564 107.599 79.0503 102.844 74.9568C102.783 74.7036 102.814 74.438 102.931 74.204C103.049 73.97 103.246 73.7816 103.49 73.6702C104.375 73.2183 102.674 71.1089 103.397 70.7562C104.121 70.4035 103.103 67.3441 103.103 67.3441L103.771 60.9607L103.243 59.9403L104.53 53.6966L106.763 52.9119L107.655 50.844L112.239 50.5721Z" fill="#3F3D56"/>
<path d="M113.657 77.7367C113.647 77.4607 113.7 77.1859 113.812 76.9316C113.924 76.6774 114.093 76.4499 114.307 76.2652C114.52 76.0805 114.773 75.9431 115.047 75.8626C115.322 75.7822 115.611 75.7606 115.896 75.7994L119.087 69.8296L120.865 72.8699L117.562 78.0728C117.463 78.5279 117.193 78.932 116.805 79.2086C116.416 79.4852 115.936 79.6151 115.455 79.5737C114.973 79.5322 114.525 79.3223 114.193 78.9838C113.862 78.6452 113.671 78.2015 113.657 77.7367Z" fill="#FFB6B6"/>
<path d="M119.032 76.2763L125.878 66.0662L125.855 66.0192C125.83 65.9654 124.279 62.7436 122.777 59.7926C122.546 59.3381 122.316 58.8901 122.093 58.4611C121.996 58.2759 121.901 58.0946 121.808 57.9172C121.177 56.7203 120.626 55.7311 120.297 55.2612C119.569 54.1987 118.485 53.4078 117.226 53.0196L117.195 53.0118L117.164 53.0239C116.548 53.274 116.039 53.7187 115.721 54.2846C115.403 54.8505 115.295 55.5038 115.414 56.1368C116.008 59.1901 117.331 62.0688 119.279 64.5457L120.389 65.9533L116.532 74.0221L119.032 76.2763Z" fill="#3F3D56"/>
<path d="M95.4925 37.1394C95.681 37.3477 95.8197 37.5932 95.899 37.8586C95.9782 38.1241 95.996 38.403 95.9511 38.6758C95.9061 38.9486 95.7996 39.2086 95.639 39.4375C95.4784 39.6664 95.2676 39.8586 95.0214 40.0006L96.4484 46.5722L93.0777 45.288L92.2393 39.2443C92.0188 38.8305 91.9637 38.3533 92.0844 37.903C92.2052 37.4528 92.4933 37.0608 92.8943 36.8013C93.2953 36.5419 93.7813 36.433 94.2601 36.4953C94.739 36.5576 95.1775 36.7868 95.4925 37.1394Z" fill="#FFB6B6"/>
<path d="M92.2726 41.5309L93.6357 53.6108L93.684 53.6336C93.7238 53.6524 95.4507 54.4675 97.5705 55.4383C97.9281 55.602 97.8768 56.3114 98.2506 56.481C98.508 56.5978 99.1879 56.174 99.448 56.2911C101.765 57.3338 104.108 58.3477 105.042 58.6224C106.302 59.0068 107.662 58.9647 108.894 58.5031L108.924 58.49L108.939 58.4622C109.254 57.8947 109.358 57.2408 109.235 56.6084C109.112 55.9761 108.769 55.403 108.262 54.9836C105.802 52.9715 102.891 51.537 99.7569 50.7933L97.9736 50.3722L95.6898 41.7671L92.2726 41.5309Z" fill="#3F3D56"/>
<path d="M109.824 49.8877C112.298 49.8877 114.304 47.9577 114.304 45.5769C114.304 43.1961 112.298 41.2661 109.824 41.2661C107.35 41.2661 105.345 43.1961 105.345 45.5769C105.345 47.9577 107.35 49.8877 109.824 49.8877Z" fill="#FFB6B6"/>
<path d="M105.377 42.6883C105.745 41.6569 107.579 40.9416 110.552 40.8421C113.525 40.7427 114.279 44.1142 114.279 44.1142C116.264 45.6635 112.16 49.8114 111.961 49.662L112.05 48.8827C112.198 47.5918 112.826 46.5847 112.028 45.2394L111.26 45.2479C110.27 45.4312 109.279 45.6145 108.288 45.7978L109.461 44.8041L109.428 44.7548C108.929 45.0049 108.386 45.1635 107.827 45.2226C107.197 45.2583 106.508 45.0169 106.206 44.4831C106.125 44.3364 106.076 44.1757 106.061 44.0104C105.211 44.3372 104.822 45.3457 104.822 45.3457C104.822 45.3457 105.008 43.7196 105.377 42.6883Z" fill="#2F2E41"/>
<path d="M18.048 42.9469C17.9873 42.8727 17.9218 42.8022 17.8521 42.7358C17.8691 42.7132 17.8861 42.6886 17.9032 42.6661L18.048 42.9469Z" fill="#2F2E41"/>
<path d="M18.9192 60.2847C18.1865 61.5371 16.7231 62.2361 15.2724 62.5785C13.6431 62.9892 11.9273 62.9572 10.3157 62.4862C10.1112 62.4227 9.90667 62.3489 9.70857 62.2669C9.80381 62.0235 9.87931 61.7733 9.93437 61.5187C10.0085 61.1741 10.0456 60.8231 10.0451 60.4712C9.88373 60.7743 9.67464 61.0516 9.42526 61.2932C9.2329 61.4877 9.01441 61.6566 8.77558 61.7954C8.03481 61.3628 7.39339 60.7895 6.89043 60.1104C6.92237 60.0346 6.95434 59.9587 6.98416 59.8829C7.13884 59.4868 7.26133 59.0797 7.35053 58.6653C7.47156 58.105 7.53224 57.5341 7.5316 56.9618C7.26895 57.455 6.92833 57.9058 6.52191 58.2983C6.40006 58.4238 6.27061 58.5422 6.13424 58.653C5.92305 58.0358 5.8414 57.3843 5.89406 56.7365C5.94671 56.0886 6.13262 55.4573 6.44096 54.8792C7.2845 53.3787 8.92043 52.487 10.3774 51.5174C11.8366 50.5478 13.2957 49.2359 13.4192 47.5325C13.5023 46.3825 12.9485 45.2304 13.17 44.0989C13.2632 43.6218 13.4906 43.1784 13.8276 42.817C14.1646 42.4557 14.5981 42.1902 15.081 42.0496C15.5639 41.909 16.0777 41.8987 16.5663 42.0197C17.0549 42.1406 17.4996 42.3883 17.852 42.7358C17.0255 43.8632 16.2033 45.0296 15.8689 46.3702C15.5281 47.7354 15.8071 49.3363 16.9254 50.2403C17.3088 50.5519 17.7796 50.7733 18.0757 51.1628C18.4698 51.6793 18.4719 52.3681 18.5358 53.0035C18.6636 54.2396 19.0832 55.4285 19.309 56.6523C19.537 57.874 19.5497 59.2003 18.9192 60.2847Z" fill="#2F2E41"/>
<path d="M3.89807 111.118L5.8422 112.564L12.5611 106.035L9.69172 103.902L3.89807 111.118Z" fill="#A0616A"/>
<path d="M3.98075 109.706L7.19561 111.814L6.17823 113.081L7.54076 117.196C7.60809 117.399 7.60615 117.618 7.53523 117.82C7.46432 118.022 7.32814 118.197 7.14658 118.319C6.96502 118.441 6.74758 118.505 6.52602 118.5C6.30445 118.495 6.09035 118.421 5.91499 118.291L2.25632 115.571L2.63203 113.848L1.37946 114.919L0 113.893L3.98075 109.706Z" fill="#2F2E41"/>
<path d="M13.7612 46.5888C13.7609 47.3197 13.9471 48.0396 14.3034 48.6851C14.6597 49.3307 15.1753 49.8822 15.8048 50.2913C16.4343 50.7003 17.1585 50.9544 17.9138 51.0312C18.6692 51.1081 19.4326 51.0053 20.1371 50.7319C20.8415 50.4586 21.4655 50.0229 21.9541 49.4633C22.4428 48.9037 22.7813 48.2373 22.9398 47.5224C23.0983 46.8075 23.0721 46.0662 22.8633 45.3633C22.6546 44.6605 22.2698 44.0178 21.7427 43.4915L21.7204 43.4701C21.6833 43.4325 21.6461 43.395 21.6072 43.3593L21.6064 43.3592L21.6058 43.3588L21.6054 43.3582L21.6053 43.3575C21.5571 43.3146 21.5088 43.2718 21.4587 43.2307C20.642 42.5412 19.4941 41.7928 18.3229 41.7928C15.7595 41.7928 13.7612 44.122 13.7612 46.5888Z" fill="#2F2E41"/>
<path d="M40.2106 44.2955C40.2328 44.5337 40.2005 44.7737 40.1159 44.9985C40.0313 45.2234 39.8965 45.4276 39.721 45.5969C39.5455 45.7662 39.3336 45.8965 39.1002 45.9784C38.8667 46.0604 38.6174 46.0921 38.3699 46.0713L26.8792 56.0553L24.9017 53.0499L36.8185 44.181C36.8824 43.7831 37.0957 43.4215 37.418 43.1649C37.7404 42.9082 38.1493 42.7742 38.5674 42.7884C38.9855 42.8025 39.3838 42.9637 39.6866 43.2415C39.9894 43.5193 40.1759 43.8943 40.2106 44.2955Z" fill="#A0616A"/>
<path d="M21.9683 59.0689C21.9683 59.0689 22.3958 59.8288 23.8562 58.6555C25.0254 57.7162 30.6268 53.6381 31.8336 51.9671C32.1091 52.0721 32.4131 52.086 32.6978 52.0065C32.9824 51.9269 33.2315 51.7585 33.4057 51.5278L30.0993 48.7412C29.11 48.8508 29.1312 49.4903 29.2343 49.8534L26.7402 50.9408L20.2998 54.9016L21.6491 58.5249L21.9683 59.0689Z" fill="#012240"/>
<path d="M15.729 66.0698L15.4882 67.1735L15.2837 71.2447L24.2872 71.7209L24.0076 65.4593L23.1349 64.0794L15.729 66.0698Z" fill="#A0616A"/>
<path d="M19.5448 51.3665C21.6939 51.3665 23.436 49.69 23.436 47.622C23.436 45.5539 21.6939 43.8774 19.5448 43.8774C17.3958 43.8774 15.6537 45.5539 15.6537 47.622C15.6537 49.69 17.3958 51.3665 19.5448 51.3665Z" fill="#A0616A"/>
<path d="M12.6366 61.4335L12.6127 58.3209C12.6121 57.201 13.006 56.1139 13.7299 55.237C14.4539 54.3601 15.4653 53.7452 16.5991 53.4926L16.6138 53.4892L17.3832 52.4916L20.5093 52.7925L21.0823 53.9194L23.3474 55.2174L24.2196 57.9153C24.5978 58.158 24.9202 58.4729 25.1667 58.8404C25.4132 59.208 25.5784 59.6205 25.6523 60.0522C25.9484 61.8722 24.6241 63.6933 24.4666 63.9021L24.0608 66.1018L15.2318 67.6009L15.1601 67.6096L12.6366 61.4335Z" fill="#012240"/>
<path d="M24.3063 46.9544C23.8525 47.2311 23.3816 47.4809 22.8962 47.7026C22.4036 47.9304 21.8883 48.1096 21.3583 48.2377C21.2066 47.9174 21.021 47.6131 20.8044 47.3296C20.8601 47.6656 20.8616 48.0078 20.8087 48.3442C19.9301 48.4807 19.0302 48.4096 18.1865 48.1372L17.4537 46.9544L17.3984 48.2746C16.7913 48.3812 16.1863 48.4816 15.5792 48.5861C15.543 48.5902 15.5068 48.5984 15.4727 48.6046C15.0957 46.9688 15.6304 45.167 16.819 44.0764C17.4091 43.5407 18.1453 43.1772 18.9417 43.0284C19.7382 42.8796 20.5622 42.9516 21.3178 43.236C21.4136 43.2729 21.5116 43.3139 21.6053 43.3569L21.6055 43.3577L21.6059 43.3584L21.6067 43.3588L21.6075 43.359C21.6629 43.3856 21.7097 43.4492 21.7715 43.443C24.4299 43.1581 24.5151 45.1423 24.3063 46.9544Z" fill="#2F2E41"/>
<path d="M17.8331 106.29L19.7803 107.731L26.4856 101.19L23.6118 99.0625L17.8331 106.29Z" fill="#A0616A"/>
<path d="M18.0894 105.008L21.3087 107.11L20.2939 108.379L21.6651 112.491C21.7329 112.694 21.7314 112.913 21.6609 113.115C21.5904 113.317 21.4546 113.492 21.2733 113.615C21.092 113.738 20.8747 113.801 20.6531 113.797C20.4315 113.792 20.2173 113.719 20.0416 113.589L16.3773 110.876L16.7494 109.153L15.499 110.226L14.1174 109.203L18.0894 105.008Z" fill="#2F2E41"/>
<path d="M11.5148 98.3064L11.5147 98.282L12.4375 96.7516L11.4952 94.7596L11.4669 89.6417L11.6196 88.8734C11.8251 87.84 11.7653 86.7741 11.4455 85.768L11.4283 82.6527C11.3952 81.8723 12.6515 81.186 12.3585 80.5354C9.58936 74.3857 15.1863 69.6944 15.2241 69.6568L15.3384 69.5424L15.959 69.9947L16.5497 69.9954L24.5203 71.393L24.5778 71.4963C24.8913 72.0622 25.4963 74.0126 25.5322 74.8953C25.9295 75.3378 30.4544 80.3765 30.8566 80.7266C33.5747 83.0934 35.131 87.0106 35.8167 89.1351C35.987 89.6601 36.0213 90.2173 35.9167 90.758C35.8121 91.2987 35.5716 91.8066 35.2164 92.2374L24.9262 103.084L22.1571 100.624L27.725 90.8603L27.3235 89.8696C26.6031 89.7417 25.9511 89.3773 25.4788 88.8384L24.3514 87.5505C24.0392 87.1949 23.8408 86.7599 23.7803 86.2981L23.0966 86.2189L20.6474 83.7444L18.9482 98.5523L18.4863 99.7221L10.4414 108.824L7.0332 106.774L11.5148 98.3064Z" fill="#2F2E41"/>
<path d="M10.2861 34.7226C10.1316 34.9099 10.0216 35.1274 9.96384 35.36C9.90612 35.5926 9.90209 35.8346 9.95204 36.0688C10.002 36.3031 10.1047 36.5239 10.2529 36.7158C10.4012 36.9078 10.5914 37.0661 10.8101 37.1796L8.25195 44.4675L10.3408 52.1908L13.709 50.7254L11.6306 44.9L13.1856 36.4206C13.3594 36.0544 13.3877 35.6395 13.2649 35.2547C13.1422 34.8698 12.877 34.5416 12.5196 34.3323C12.1622 34.123 11.7374 34.0471 11.3258 34.1191C10.9142 34.191 10.5442 34.4058 10.2861 34.7226Z" fill="#A0616A"/>
<path d="M13.3693 58.5543C13.3693 58.5543 12.5782 58.9631 12.028 57.2105C11.5875 55.8075 8.58994 48.1895 8.53593 46.1552C8.24572 46.0973 7.98378 45.9481 7.79139 45.7311C7.59899 45.5142 7.48707 45.2418 7.47327 44.9569L11.8269 44.3771C12.5908 44.9918 12.2079 45.5149 11.9145 45.7638L13.3974 48.1808L16.4966 54.706L13.9466 58.2686L13.3693 58.5543Z" fill="#012240"/>
<path d="M15.5784 48.5858C16.0255 47.2883 16.8271 46.1305 17.8993 45.2338C18.9715 44.3372 20.2747 43.7347 21.6721 43.4897C21.6777 43.4879 21.6962 43.4808 21.7204 43.47C21.7352 43.4611 21.7538 43.4522 21.7723 43.4432C21.7167 43.4129 21.6628 43.3861 21.6071 43.3593L21.6064 43.3592L21.6058 43.3588L21.6054 43.3582L21.6053 43.3575C21.557 43.3146 21.5088 43.2718 21.4587 43.2307L21.3176 43.236C21.3176 43.236 16.3598 42.4805 15.5784 48.5858Z" fill="#FD6584"/>
<path d="M79.5516 90.313C80.0927 89.5303 79.7724 88.41 78.8363 87.8106C77.9001 87.2113 76.7026 87.3599 76.1615 88.1425C75.6204 88.9252 75.9407 90.0455 76.8768 90.6449C77.813 91.2442 79.0105 91.0956 79.5516 90.313Z" fill="#F2F2F2"/>
<path d="M68.5678 61.1014C69.1089 60.3188 68.7887 59.1985 67.8525 58.5991C66.9164 57.9997 65.7188 58.1483 65.1777 58.931C64.6366 59.7136 64.9569 60.834 65.8931 61.4333C66.8292 62.0327 68.0268 61.8841 68.5678 61.1014Z" fill="#F2F2F2"/>
<path d="M114.5 106.072C115.041 105.289 114.721 104.169 113.785 103.569C112.848 102.97 111.651 103.119 111.11 103.901C110.569 104.684 110.889 105.804 111.825 106.404C112.761 107.003 113.959 106.854 114.5 106.072Z" fill="#F2F2F2"/>
<path d="M21.6371 12.0952C22.1781 11.3126 21.8579 10.1922 20.9217 9.59287C19.9856 8.99351 18.788 9.14209 18.2469 9.92474C17.7058 10.7074 18.0261 11.8277 18.9623 12.4271C19.8984 13.0265 21.096 12.8779 21.6371 12.0952Z" fill="#F2F2F2"/>
<path d="M64.9731 2.87055C65.5142 2.0879 65.1939 0.967557 64.2578 0.368194C63.3216 -0.231169 62.1241 -0.0825876 61.583 0.700064C61.0419 1.48272 61.3622 2.60307 62.2983 3.20243C63.2345 3.80179 64.432 3.6532 64.9731 2.87055Z" fill="#F2F2F2"/>
<path d="M44.4634 80.2647C45.0044 79.4821 44.6842 78.3617 43.748 77.7624C42.8119 77.163 41.6143 77.3116 41.0732 78.0942C40.5321 78.8769 40.8524 79.9972 41.7886 80.5966C42.7247 81.196 43.9223 81.0474 44.4634 80.2647Z" fill="#E6E6E6"/>
<path d="M133.856 121H3.9888C3.92586 121 3.86556 120.976 3.82111 120.933C3.77667 120.89 3.75171 120.832 3.75171 120.771C3.75171 120.711 3.77667 120.652 3.82111 120.61C3.86556 120.567 3.92586 120.543 3.9888 120.542H133.856C133.919 120.542 133.98 120.566 134.024 120.609C134.069 120.652 134.094 120.71 134.094 120.771C134.094 120.832 134.069 120.89 134.024 120.933C133.98 120.976 133.919 121 133.856 121Z" fill="#CCCCCC"/>
<path d="M28.1602 45.0015C27.0678 44.9985 26.0148 44.6081 25.2027 43.9051C24.3905 43.202 23.8761 42.2356 23.7577 41.1905L21.2224 18.531C21.0978 17.406 21.4421 16.2793 22.1797 15.3982C22.9173 14.5171 23.9879 13.9536 25.1567 13.8312L100.436 6.03098C101.606 5.91105 102.776 6.24231 103.692 6.95209C104.608 7.66187 105.193 8.69218 105.32 9.81699L107.856 32.4764C107.98 33.6014 107.636 34.7281 106.899 35.6093C106.161 36.4904 105.09 37.054 103.921 37.1764L28.6416 44.9766C28.4817 44.9932 28.321 45.0015 28.1602 45.0015Z" fill="#E6E6E6"/>
<path d="M99.6073 7.08289C99.4658 7.08294 99.3245 7.09027 99.1839 7.10485L26.6183 14.6238C26.1109 14.6764 25.6192 14.8247 25.1713 15.0601C24.7235 15.2955 24.3282 15.6135 24.008 15.996C23.6879 16.3784 23.4491 16.8178 23.3054 17.289C23.1617 17.7603 23.1159 18.2541 23.1705 18.7424L24.4524 30.1993C24.6596 32.0514 25.2439 33.8461 26.1719 35.481C27.0999 37.1158 28.3534 38.5588 29.8608 39.7274C31.3683 40.8961 33.1002 41.7675 34.9577 42.2921C36.8151 42.8166 38.7617 42.9839 40.6864 42.7845L91.7121 37.4974C93.6309 37.2985 95.4902 36.738 97.1839 35.8477C98.8776 34.9574 100.372 33.7548 101.583 32.3085C102.794 30.8622 103.697 29.2007 104.24 27.4186C104.784 25.6366 104.957 23.769 104.75 21.9225L103.464 10.4227C103.361 9.5067 102.911 8.65934 102.199 8.04304C101.488 7.42674 100.565 7.08485 99.6073 7.08289Z" fill="white"/>
<path d="M84.326 19.0062L43.7682 23.2087C43.6522 23.2208 43.5349 23.2109 43.4229 23.1794C43.3109 23.1479 43.2065 23.0954 43.1156 23.0251C43.0247 22.9547 42.9492 22.8678 42.8932 22.7693C42.8372 22.6708 42.802 22.5626 42.7895 22.451C42.777 22.3394 42.7875 22.2265 42.8204 22.1188C42.8533 22.0111 42.9079 21.9107 42.9812 21.8233C43.0544 21.7359 43.1448 21.6633 43.2473 21.6096C43.3497 21.5559 43.4621 21.5221 43.5781 21.5103L84.136 17.3078C84.252 17.2956 84.3693 17.3056 84.4813 17.3371C84.5932 17.3686 84.6976 17.421 84.7885 17.4914C84.8794 17.5617 84.955 17.6486 85.011 17.7471C85.0669 17.8456 85.1022 17.9538 85.1146 18.0654C85.1271 18.177 85.1166 18.2899 85.0837 18.3976C85.0509 18.5053 84.9962 18.6057 84.923 18.6931C84.8498 18.7805 84.7593 18.8531 84.6569 18.9068C84.5545 18.9605 84.442 18.9943 84.326 19.0062Z" fill="#012240"/>
<path d="M84.9093 24.2187L44.3515 28.4212C44.1174 28.4454 43.883 28.3792 43.6996 28.2371C43.5163 28.095 43.3992 27.8886 43.374 27.6634C43.3488 27.4382 43.4176 27.2126 43.5653 27.0362C43.7129 26.8598 43.9274 26.747 44.1614 26.7228L84.7193 22.5203C84.9533 22.496 85.1878 22.5623 85.3711 22.7044C85.5544 22.8465 85.6716 23.0528 85.6968 23.2781C85.722 23.5033 85.6532 23.7289 85.5055 23.9053C85.3578 24.0817 85.1434 24.1945 84.9093 24.2187Z" fill="#012240"/>
<path d="M49.661 33.1438L44.9346 33.6335C44.7006 33.6578 44.4661 33.5916 44.2828 33.4495C44.0995 33.3074 43.9823 33.101 43.9571 32.8758C43.9319 32.6506 44.0007 32.4249 44.1484 32.2485C44.2961 32.0721 44.5105 31.9594 44.7446 31.9351L49.471 31.4454C49.587 31.4332 49.7043 31.4432 49.8162 31.4747C49.9282 31.5062 50.0326 31.5586 50.1235 31.629C50.2144 31.6994 50.29 31.7863 50.346 31.8848C50.4019 31.9833 50.4372 32.0914 50.4496 32.203C50.4621 32.3147 50.4516 32.4275 50.4187 32.5353C50.3859 32.643 50.3312 32.7434 50.258 32.8307C50.1847 32.9181 50.0943 32.9907 49.9919 33.0445C49.8895 33.0982 49.777 33.1319 49.661 33.1438Z" fill="#012240"/>
<path d="M26.5643 19.4871C27.4467 19.4871 28.162 18.7988 28.162 17.9497C28.162 17.1006 27.4467 16.4122 26.5643 16.4122C25.682 16.4122 24.9667 17.1006 24.9667 17.9497C24.9667 18.7988 25.682 19.4871 26.5643 19.4871Z" fill="#3F3D56"/>
<path d="M98.0589 11.7999C98.9413 11.7999 99.6566 11.1115 99.6566 10.2624C99.6566 9.41332 98.9413 8.72498 98.0589 8.72498C97.1766 8.72498 96.4613 9.41332 96.4613 10.2624C96.4613 11.1115 97.1766 11.7999 98.0589 11.7999Z" fill="#3F3D56"/>
<path d="M76.4594 43.3631C76.3126 43.239 76.1964 43.085 76.1191 42.9123C76.0419 42.7396 76.0056 42.5525 76.0129 42.3646C76.0931 40.1315 75.7109 37.9053 74.8886 35.8157C74.8189 35.64 74.7907 35.4516 74.8061 35.2642C74.8215 35.0767 74.8801 34.8949 74.9777 34.732C75.0712 34.5754 75.1992 34.4404 75.3527 34.3365C75.5061 34.2326 75.6814 34.1623 75.8661 34.1305C77.7231 33.0521 79.6268 32.7494 81.5254 33.2309C81.8316 33.1875 82.1437 33.2506 82.4059 33.4087C82.6681 33.5669 82.8631 33.8099 82.9559 34.094C83.7246 36.4954 84.1522 38.986 84.227 41.4978C84.2342 41.7991 84.1281 42.0928 83.9283 42.3249C83.7285 42.5571 83.4484 42.7121 83.1395 42.7614L77.5211 43.6546C77.3327 43.685 77.1397 43.6745 76.9561 43.6241C76.7725 43.5737 76.6028 43.4845 76.4594 43.3631Z" fill="#012240"/>
<path d="M76.9584 36.8567L81.6872 36.1048C81.7261 36.0987 81.7634 36.0853 81.7969 36.0654C81.8304 36.0454 81.8594 36.0193 81.8824 35.9885C81.9054 35.9577 81.9218 35.9228 81.9308 35.8859C81.9398 35.849 81.9411 35.8107 81.9346 35.7733C81.9282 35.7359 81.9142 35.7001 81.8934 35.6679C81.8725 35.6357 81.8453 35.6078 81.8133 35.5858C81.7812 35.5637 81.745 35.548 81.7066 35.5395C81.6682 35.5309 81.6284 35.5297 81.5896 35.536L76.8608 36.2878C76.7825 36.3004 76.7127 36.3424 76.6666 36.4045C76.6204 36.4666 76.6018 36.5438 76.6147 36.6191C76.6277 36.6944 76.6711 36.7617 76.7355 36.8063C76.8 36.8508 76.8801 36.8689 76.9584 36.8567Z" fill="white"/>
<path d="M77.3491 39.132L82.0779 38.3802C82.1563 38.3677 82.2263 38.3258 82.2726 38.2637C82.3188 38.2015 82.3376 38.1242 82.3246 38.0488C82.3117 37.9733 82.2681 37.906 82.2035 37.8614C82.1389 37.8169 82.0586 37.7989 81.9802 37.8114L77.2514 38.5632C77.2125 38.5693 77.1753 38.5827 77.1418 38.6026C77.1083 38.6226 77.0792 38.6487 77.0562 38.6795C77.0333 38.7103 77.0168 38.7452 77.0079 38.7821C76.9989 38.819 76.9976 38.8573 77.004 38.8947C77.0104 38.9321 77.0245 38.9679 77.0453 39.0001C77.0661 39.0323 77.0933 39.0602 77.1254 39.0822C77.1574 39.1043 77.1937 39.12 77.2321 39.1286C77.2704 39.1371 77.3102 39.1383 77.3491 39.132Z" fill="white"/>
<path d="M77.7397 41.4073L82.4686 40.6555C82.547 40.6431 82.617 40.6011 82.6633 40.539C82.7095 40.4768 82.7282 40.3995 82.7153 40.3241C82.7023 40.2487 82.6588 40.1813 82.5942 40.1368C82.5296 40.0922 82.4493 40.0742 82.3709 40.0867L77.6421 40.8385C77.6033 40.8447 77.5661 40.8581 77.5327 40.8781C77.4993 40.8981 77.4703 40.9242 77.4474 40.955C77.4245 40.9858 77.4081 41.0206 77.3992 41.0575C77.3902 41.0943 77.389 41.1325 77.3954 41.1699C77.4018 41.2072 77.4158 41.243 77.4365 41.2752C77.4573 41.3073 77.4845 41.3352 77.5165 41.3572C77.5484 41.3793 77.5846 41.3951 77.6229 41.4037C77.6612 41.4123 77.7009 41.4135 77.7397 41.4073Z" fill="white"/>
</g>
<defs>
<clipPath id="clip0_63_175">
<rect width="146" height="121" fill="white"/>
</clipPath>
</defs>
</svg>
